<svg width="94" height="64" viewBox="0 0 94 64" fill="none" xmlns="http://www.w3.org/2000/svg">
<g clip-path="url(#clip0_101_28)">
<path d="M20.6841 6.02153L25.8412 6.00275L25.9018 23.024L31.7821 14.8155L37.9065 14.7942L32.0268 23.3258L39.0891 35.0435L33.1795 35.0642L28.3883 27.3246L25.928 30.5651L25.9443 35.0898L20.7865 35.108L20.6841 6.02153Z" fill="white"/>
<path d="M48.4358 14.5613C51.2289 14.4436 54.0263 15.511 55.9671 17.4431C59.9572 21.6303 59.9809 28.31 56.0201 32.5254C51.7359 36.419 45.1819 36.4422 40.9777 32.5786C36.9869 28.2837 36.9638 21.7117 40.9246 17.4963C42.959 15.5498 45.6415 14.463 48.4352 14.5606L48.4358 14.5613ZM48.5595 19.193C47.1626 19.198 45.7676 19.7415 44.8048 20.8221C43.8419 22.0104 43.3099 23.4128 43.3149 24.921C43.2125 26.4299 43.7551 27.9362 44.8341 29.117C45.8051 30.1907 47.2038 30.7248 48.6007 30.7198C49.9975 30.7148 51.3925 30.1713 52.3554 29.0907C53.3182 27.9024 53.8503 26.5 53.8446 24.8841C53.947 23.3752 53.4044 21.8689 52.4328 20.6875C51.355 19.7214 49.9563 19.188 48.5595 19.193Z" fill="white"/>
<path d="M71.9358 14.5656L71.9539 19.7364C70.5565 19.6338 69.1615 20.0695 67.9826 20.9354C66.9117 21.9089 66.2716 23.2037 66.384 24.7119L66.4202 34.9465L61.2631 34.9646L61.1919 14.8192L65.5972 14.8036L66.0387 18.0341C66.8898 15.6613 68.8199 14.5769 71.9358 14.5656Z" fill="white"/>
<path d="M88.0177 5.84183L93.1749 5.82367L93.2773 34.8031L88.8719 34.8187L88.4323 32.1272C87.043 34.1789 84.5758 35.3728 82.1044 35.2739C79.5255 35.2833 77.0508 34.2146 75.4323 32.2812C71.8712 27.9844 71.8494 21.7361 75.3793 17.3066C76.984 15.362 79.4511 14.1681 82.03 14.2664C84.3929 14.0422 86.5459 15.1122 88.0564 16.8308L88.0177 5.84245V5.84183ZM83.1222 19.218C81.7253 19.2231 80.4378 19.7665 79.4749 20.8471C77.5491 23.2243 77.5616 26.6715 79.5036 29.0344C80.4746 30.1081 81.7659 30.6421 83.1628 30.6371C84.4522 30.6327 85.7398 30.0893 86.7033 29.1164C87.7742 28.0351 88.3056 26.525 88.1932 25.0174V24.8021C88.1869 23.2938 87.6449 21.8952 86.6739 20.8214C85.7029 19.7477 84.411 19.2137 83.1222 19.218Z" fill="white"/>
<path d="M8.41915 22.3723L3.40436 22.3898L3.42247 27.456L9.93027 27.4329L12.3687 35.138L18.455 35.1168L9.04795 5.21451L3.00098 5.23579L8.41915 22.3723Z" fill="white"/>
<path d="M1.72664 0.174783L0.277344 0.179932L0.418941 40.2507L1.86823 40.2456L1.72664 0.174783Z" fill="#E6F783"/>
<path d="M8.41915 22.3741L3.40436 22.3916L3.42247 27.4579L9.93027 27.4347L12.3687 35.1399L18.455 35.1186L9.04795 5.21637L3.00098 5.23766L8.41915 22.3741Z" fill="white"/>
<path d="M31.7638 39.6878H0.348145V63.1739H31.7638V39.6878Z" fill="#E6F783"/>
<path d="M9.47269 57.8479C8.24444 57.8479 7.27657 57.506 6.57159 56.8211C5.86599 56.1368 5.51318 55.2071 5.51318 54.0319H7.3565C7.3565 54.7168 7.54133 55.2528 7.91162 55.6403C8.28128 56.0278 8.80205 56.2219 9.47269 56.2219C10.1327 56.2219 10.6529 56.031 11.0344 55.6484C11.4159 55.2659 11.6057 54.7275 11.6057 54.0313V46.8614H8.10706V45.1848H13.4484V54.0313C13.4484 55.2064 13.0931 56.1362 12.3819 56.8205C11.6713 57.5054 10.7009 57.8472 9.47207 57.8472L9.47269 57.8479Z" fill="black"/>
<path d="M20.7875 57.8479C19.957 57.8479 19.237 57.7051 18.6288 57.4203C18.02 57.1354 17.5511 56.7303 17.2208 56.205C16.8904 55.6804 16.7256 55.0643 16.7256 54.3568H18.5689C18.5689 54.9159 18.7706 55.3661 19.1746 55.7086C19.5786 56.051 20.1219 56.2219 20.8044 56.2219C21.4531 56.2219 21.9708 56.0504 22.3573 55.7086C22.7438 55.3667 22.9374 54.9159 22.9374 54.3568C22.9374 53.9011 22.8119 53.5041 22.5621 53.1673C22.3117 52.8311 21.9708 52.6001 21.5381 52.4742L19.8827 51.9777C18.9723 51.716 18.2673 51.2734 17.7665 50.6517C17.2657 50.03 17.0153 49.2912 17.0153 48.4354C17.0153 47.398 17.3563 46.5678 18.0394 45.9461C18.7225 45.3244 19.6435 45.0132 20.8037 45.0132C21.9527 45.0132 22.8712 45.3181 23.56 45.9285C24.2481 46.539 24.5921 47.3629 24.5921 48.4009H22.7488C22.7488 47.865 22.5721 47.4374 22.2199 47.1175C21.8671 46.7982 21.3888 46.6385 20.7863 46.6385C20.1837 46.6385 19.7054 46.795 19.3532 47.1087C19.0004 47.423 18.8237 47.8531 18.8237 48.4009C18.8237 48.8229 18.9492 49.1879 19.199 49.496C19.4493 49.804 19.7965 50.0206 20.2399 50.1465L21.9464 50.6598C22.8338 50.9228 23.525 51.3729 24.0202 52.0122C24.5153 52.6514 24.762 53.4215 24.762 54.3218C24.762 55.0293 24.5971 55.6478 24.2674 56.1787C23.9371 56.709 23.4738 57.1191 22.8762 57.4102C22.2793 57.7014 21.5824 57.8466 20.7856 57.8466L20.7875 57.8479Z" fill="black"/>
</g>
<defs>
<clipPath id="clip0_101_28">
<rect width="93" height="63" fill="white" transform="translate(0.277344 0.174561)"/>
</clipPath>
</defs>
</svg>
