<?xml version="1.0" encoding="UTF-8"?><svg version="1.1" width="20px" height="16px" viewBox="0 0 16.0 16.0" xmlns="http://www.w3.org/2000/svg" xmlns:xlink="http://www.w3.org/1999/xlink"><defs><clipPath id="i0"><path d="M7.999266,0 C12.417856,0 15.999956,3.672324 15.999956,8.203684 C15.999956,11.826134 13.709956,14.898734 10.533856,15.985434 C10.127756,16.065434 9.983856,15.810634 9.983856,15.591134 C9.983856,15.3580873 9.99121689,14.6625064 9.99317979,13.7672502 L9.993656,13.340834 C9.993656,12.575434 9.737856,12.074934 9.450506,11.821634 C11.232256,11.618734 13.102956,10.925334 13.102956,7.774164 C13.102956,6.878864 12.793556,6.146714 12.280756,5.573184 C12.363256,5.365724 12.637856,4.531864 12.201256,3.402424 C12.201256,3.402424 11.530856,3.181874 10.003456,4.243334 C9.364556,4.061554 8.679946,3.970414 8.000736,3.967394 C7.320546,3.970414 6.635936,4.061554 5.997976,4.243334 C4.470116,3.181874 3.798276,3.402424 3.798276,3.402424 C3.363146,4.531864 3.637676,5.365724 3.719696,5.573184 C3.207956,6.146714 2.896096,6.878864 2.896096,7.774164 C2.896096,10.917234 4.763806,11.621234 6.540166,11.828134 C6.311796,12.033134 6.105036,12.394634 6.032356,12.924834 C5.576106,13.134834 4.417566,13.496434 3.703976,12.243034 C3.703976,12.243034 3.281626,11.455534 2.478656,11.397634 L2.457504,11.3978463 C2.3374593,11.400711 1.769922,11.437944 2.423646,11.896134 C2.423646,11.896134 2.948156,12.148434 3.312076,13.096034 C3.312076,13.096034 3.781576,14.691334 6.006816,14.195834 C6.010746,14.880134 6.017616,15.395734 6.017616,15.590634 C6.017616,15.808134 5.871756,16.060934 5.471496,15.985934 C2.292026,14.901234 0,11.826634 0,8.203174 C0,3.672324 3.582186,0 7.999266,0 Z"></path></clipPath></defs><g transform=""><g clip-path="url(#i0)"><polygon points="0,0 15.999956,0 15.999956,16.0004744 0,16.0004744 0,0" stroke="none" fill="#E6F783"></polygon></g></g></svg>