<svg x="0px" y="0px" viewBox="0 0 85 26" class="jss878 jss879" width="85" height="26">
    <path id="Path_6004_45_" d="M15.8,25.8h4.1L13.7,5.6H6.3L0,25.8h4.1l1.6-5.2h8.5L15.8,25.8z M6.8,17.2L9.9,6.8l0,0 l3.3,10.4H6.8z"></path>
    <path id="Path_310_39_" d="M20.7,4.8h3.7v12.3l4.3-5.9h4.4l-4.3,6.1l5,8.4h-4.3l-3.4-5.5l-1.8,2.3v3.3h-3.7V4.8z"></path>
    <path id="Path_311_40_" d="M40.7,10.9c2-0.1,4,0.7,5.4,2.1c2.9,3,2.9,7.8,0,10.9c-3.1,2.8-7.8,2.8-10.9,0 c-2.9-3.1-2.9-7.8,0-10.9C36.8,11.6,38.7,10.9,40.7,10.9z M40.8,14.3c-1,0-2,0.4-2.7,1.2c-0.7,0.9-1.1,1.9-1.1,2.9 c-0.1,1.1,0.3,2.2,1.1,3c0.7,0.8,1.7,1.2,2.7,1.2c1,0,2-0.4,2.7-1.2c0.7-0.9,1.1-1.9,1.1-3c0.1-1.1-0.3-2.2-1-3 C42.8,14.7,41.8,14.3,40.8,14.3L40.8,14.3z"></path>
    <path id="Path_312_40_" d="M57.8,11.1v3.7c-1-0.1-2,0.2-2.9,0.9c-0.8,0.7-1.2,1.6-1.2,2.7v7.4H50V11.3h3.2l0.3,2.3 C54.2,11.9,55.6,11.1,57.8,11.1z"></path>
    <path id="Path_313_40_" d="M69.1,4.8h3.7v20.9h-3.2l-0.3-1.9c-1,1.5-2.8,2.3-4.6,2.3c-1.9,0-3.6-0.8-4.8-2.2 c-2.6-3.1-2.6-7.6,0-10.8c1.2-1.4,2.9-2.3,4.8-2.2c1.7-0.2,3.3,0.6,4.3,1.9V4.8z M65.6,14.4c-1,0-1.9,0.4-2.6,1.2 c-1.4,1.7-1.4,4.2,0,5.9c0.7,0.8,1.6,1.2,2.6,1.2c0.9,0,1.9-0.4,2.6-1.1c0.8-0.8,1.2-1.9,1.1-2.9v-0.2c0-1.1-0.4-2.1-1.1-2.9 C67.4,14.8,66.5,14.4,65.6,14.4L65.6,14.4z"></path>
    <path d="M84.6,4.8h-0.5V3.1c0-1.8-1.5-3.2-3.3-3.1c-1.7,0-3.1,1.4-3.1,3.1v1.7h-0.5c-0.5,0-0.9,0.4-0.9,0.9V12 c0,0.5,0.4,0.9,0.9,0.9h7.4c0.5,0,0.9-0.4,0.9-0.9V5.7C85.5,5.2,85.1,4.8,84.6,4.8z M79,3.1c0-1,0.9-1.9,1.9-1.9 c1,0,1.9,0.9,1.9,1.9v1.7H79V3.1z M79.1,10.3l1.8-3.2l1.8,3.2H79.1z" style="fill: #222126;"></path>
</svg>