<?xml version="1.0" encoding="UTF-8"?><svg version="1.1" width="16px" height="19px" viewBox="0 0 16.0 19.0" xmlns="http://www.w3.org/2000/svg" xmlns:xlink="http://www.w3.org/1999/xlink"><defs><clipPath id="i0"><path d="M11.2383189,0.00467391845 C11.4250189,-0.0167300815 11.6126189,0.0359299185 11.7608189,0.151340918 L14.8075189,2.54883592 C14.8809189,2.60659592 14.9422189,2.67830592 14.9878189,2.75983592 C15.0334189,2.84137592 15.0624189,2.93111592 15.0731189,3.02390592 C15.0839189,3.11669592 15.0762189,3.21069592 15.0505189,3.30050592 C15.0248189,3.39030592 14.9816189,3.47413592 14.9233189,3.54717592 L12.5067189,6.62050592 L5.20584888,15.8038859 C5.13872888,15.8874859 5.05316888,15.9545859 4.95584888,15.9996859 L1.01501888,17.8738859 C0.895728879,17.9308859 0.762878879,17.9533859 0.631448879,17.9388859 C0.500028879,17.9243859 0.375278879,17.8734859 0.271278879,17.7918859 C0.167272879,17.7101859 0.0881658794,17.6010859 0.0428848794,17.4768859 C-0.00239612057,17.3526859 -0.0120481206,17.2182859 0.0150198794,17.0888859 L0.910018879,12.8188859 C0.937458879,12.7108859 0.982248879,12.6089859 1.04834888,12.5213859 L8.35001888,3.34133592 L10.7667189,0.270506918 C10.8239189,0.197334918 10.8951189,0.136185918 10.9760189,0.0905679185 C11.0569189,0.0449499185 11.1461189,0.0157599185 11.2383189,0.00467391845 Z M2.06251888,14.2213859 L1.69251888,15.9771859 L3.31251888,15.2071859 L2.06251888,14.2213859 Z M9.01751888,4.77133592 L2.60084888,12.8421859 L4.53418888,14.3638859 L10.9558189,6.29550592 L9.01751888,4.77133592 Z M11.4417189,1.70300592 L9.90001888,3.66300592 L11.8333189,5.18467592 L13.3725189,3.22133592 L11.4417189,1.70300592 Z"></path></clipPath></defs><g transform="translate(0.4609371205743855 0.2861480815479638)"><g clip-path="url(#i0)"><polygon points="0,0 15.07786,0 15.07786,17.9431667 0,17.9431667 0,0" stroke="none" fill="#E6F783"></polygon></g></g></svg>