<?xml version="1.0" encoding="UTF-8"?><svg version="1.1" width="16px" height="16px" viewBox="0 0 20.0 16.0" xmlns="http://www.w3.org/2000/svg" xmlns:xlink="http://www.w3.org/1999/xlink"><defs><clipPath id="i0"><path d="M0.314401588,0.00102549457 C0.371101588,-0.00338450543 0.428101588,0.00647549457 0.480001588,0.0297054946 L6.73830159,2.81720549 C6.79820159,2.84430549 6.84890159,2.88807549 6.88450159,2.94327549 C6.92010159,2.99847549 6.93910159,3.06276549 6.93910159,3.12845549 C6.93910159,3.19414549 6.92010159,3.25844549 6.88450159,3.31364549 C6.84890159,3.36884549 6.79820159,3.41261549 6.73830159,3.43970549 L1.75250159,5.72470549 C1.70770159,5.74490549 1.65910159,5.75534549 1.61000159,5.75534549 C1.56090159,5.75534549 1.51230159,5.74490549 1.46750159,5.72470549 L0.199201588,5.14137549 C0.139601588,5.11416549 0.0892015876,5.07037549 0.0539015876,5.01525549 C0.0185015876,4.96013549 -0.000198412372,4.89600549 0,4.83054549 L0,0.341375495 C-9.84123724e-05,0.284475495 0.0141015876,0.228455495 0.0412015876,0.178425495 C0.0683015876,0.128405495 0.107501588,0.0859654946 0.155201588,0.0549754946 C0.203001588,0.0239854946 0.257701588,0.00544549457 0.314401588,0.00102549457 Z"></path></clipPath><clipPath id="i1"><path d="M6.61646,0.00103556311 C6.67322,0.00545556311 6.72797,0.0239955631 6.77575,0.0549555631 C6.82352,0.0859255631 6.8628,0.128335563 6.89001,0.178345563 C6.91723,0.228345563 6.93158,0.284365563 6.93158,0.341295563 L6.93158,4.82962556 C6.93138,4.89490556 6.91252,4.95876556 6.87723,5.01368556 C6.84195,5.06861556 6.7917,5.11230556 6.73241,5.13962556 L5.46408,5.72295556 C5.41929,5.74315556 5.37071,5.75359556 5.32158,5.75359556 C5.27244,5.75359556 5.22387,5.74315556 5.17908,5.72295556 L0.20074,3.43795556 C0.1409,3.41086556 0.09014,3.36709556 0.05454,3.31189556 C0.01894,3.25669556 0,3.19239556 0,3.12670556 C0,3.06102556 0.01894,2.99672556 0.05454,2.94152556 C0.09014,2.88632556 0.1409,2.84255556 0.20074,2.81545556 L6.45074,0.0296255631 C6.50274,0.00643556311 6.5597,-0.00339443689 6.61646,0.00103556311 Z"></path></clipPath><clipPath id="i2"><path d="M0.658044008,0.0018062392 C0.776484008,-0.0066337608 0.895164008,0.0145962392 1.00333401,0.0635662392 L8.60000401,3.54277624 C8.72331401,3.59987624 8.82756401,3.69137624 8.90027401,3.80617624 C8.97297401,3.92097624 9.01107401,4.05427624 9.01002594,4.19027624 L9.01002594,10.4077762 C9.01002594,10.5955762 8.93537401,10.7757762 8.80253401,10.9085762 C8.66969401,11.0414762 8.48953401,11.1160776 8.30167401,11.1160776 C8.20253401,11.1162762 8.10450401,11.0951762 8.01417401,11.0543762 L0.416670008,7.67027624 C0.292237008,7.61387624 0.186723008,7.52277624 0.112807008,7.40797624 C0.0388920078,7.29307624 -0.000278992187,7.15927624 1.49584978e-06,7.02277624 L1.49584978e-06,0.707726239 C-0.000180992187,0.589116239 0.0294920078,0.472366239 0.0862890078,0.368246239 C0.143086008,0.264116239 0.225179008,0.175956239 0.325003008,0.111896239 C0.425139008,0.0480862392 0.539604008,0.0102462392 0.658044008,0.0018062392 Z M1.41917401,1.81356624 L1.41917401,6.56357624 L7.60000401,9.31356624 L7.60000401,4.64687624 L1.41917401,1.81356624 Z"></path></clipPath><clipPath id="i3"><path d="M8.35450153,0.00179174196 C8.47300153,0.010241742 8.58750153,0.048331742 8.68750153,0.112571742 C8.78710153,0.177081742 8.86890153,0.265631742 8.92520153,0.370051742 C8.98160153,0.474481742 9.01070153,0.591411742 9.01001387,0.710071742 L9.01001387,7.02006174 C9.01030153,7.15666174 8.97110153,7.29046174 8.89720153,7.40526174 C8.82330153,7.52016174 8.71780153,7.61126174 8.59330153,7.66756174 L0.995801533,11.0517617 C0.905501533,11.0925617 0.807501533,11.1135617 0.708301533,11.1133632 C0.520501533,11.1133632 0.340301533,11.0387617 0.207501533,10.9059617 C0.0746015327,10.7730617 7.6341777e-07,10.5929617 7.6341777e-07,10.4050617 L7.6341777e-07,4.18756174 C-0.000198467272,4.05196174 0.0386015327,3.91916174 0.111701533,3.80496174 C0.184801533,3.69076174 0.289201533,3.59996174 0.412501533,3.54336174 L8.00920153,0.064241742 C8.11720153,0.014821742 8.23600153,-0.00664825804 8.35450153,0.00179174196 Z M7.59670153,1.81174174 L1.41580153,4.64506174 L1.41580153,9.31426174 L7.59670153,6.56426174 L7.59670153,1.81174174 Z"></path></clipPath></defs><g transform="translate(10.378412420185352 8.881784197001252e-16)"><g clip-path="url(#i0)"><polygon points="-1.56265057e-06,4.16333634e-17 6.93910159,4.16333634e-17 6.93910159,5.75534549 -1.56265057e-06,5.75534549 -1.56265057e-06,4.16333634e-17" stroke="none" fill="#E6F783"></polygon></g></g><g transform="translate(2.135254007812957 7.993146330731449e-05)"><g clip-path="url(#i1)"><polygon points="0,2.00143721e-16 6.93158,2.00143721e-16 6.93158,5.75359556 0,5.75359556 0,2.00143721e-16" stroke="none" fill="#E6F783"></polygon></g></g><g transform="translate(0.0 4.030319255373293)"><g clip-path="url(#i2)"><polygon points="1.73958121e-16,0 9.010047,0 9.010047,11.116079 1.73958121e-16,11.116079 1.73958121e-16,0" stroke="none" fill="#E6F783"></polygon></g></g><g transform="translate(10.432612475085165 4.029633752611236)"><g clip-path="url(#i3)"><polygon points="-7.21644966e-16,-8.8817842e-16 9.01002578,-8.8817842e-16 9.01002578,11.1133646 -7.21644966e-16,11.1133646 -7.21644966e-16,-8.8817842e-16" stroke="none" fill="#E6F783"></polygon></g></g></svg>