<?xml version="1.0" encoding="UTF-8"?><svg version="1.1" width="17px" height="16px" viewBox="0 0 17.0 16.0" xmlns="http://www.w3.org/2000/svg" xmlns:xlink="http://www.w3.org/1999/xlink"><defs><clipPath id="i0"><path d="M13.229959,0 C13.404859,0 13.572459,0.069456 13.696059,0.193074 C13.819759,0.316692 13.889159,0.484345 13.889159,0.659167 L13.889159,3.444179 L14.404959,3.444179 C14.978759,3.445279 15.528659,3.673919 15.934059,4.079949 C16.339459,4.485979 16.567259,5.036239 16.567459,5.610009 L16.567459,13.318339 C16.567459,13.892239 16.339759,14.442739 15.934359,14.848939 C15.528959,15.255139 14.978859,15.483939 14.404959,15.485039 L2.162499,15.485039 C1.588589,15.483939 1.038559,15.255139 0.633129,14.848939 C0.227699,14.442739 0,13.892239 0,13.318339 L0,2.166669 C0,1.592759 0.227699,1.042289 0.633129,0.636075 C1.038559,0.229866 1.588589,0.001103 2.162499,0 Z M1.318329,4.594169 L1.318329,13.318339 C1.318549,13.542239 1.407539,13.756939 1.565779,13.915339 C1.724019,14.073739 1.938609,14.162939 2.162499,14.163339 L14.404959,14.163339 C14.516259,14.160339 14.626359,14.138739 14.729259,14.096439 C14.832159,14.054139 14.925659,13.991939 15.004459,13.913439 C15.083159,13.834939 15.145759,13.741739 15.188459,13.639039 C15.231159,13.536339 15.253359,13.426239 15.253359,13.315039 L15.253359,12.391639 L9.274959,12.391639 C8.729159,12.391439 8.205749,12.174539 7.819789,11.788539 C7.433819,11.402639 7.216889,10.879139 7.216669,10.333339 L7.216669,8.524169 C7.217109,7.978479 7.434139,7.455269 7.820079,7.069489 C8.206019,6.683699 8.729309,6.466899 9.274959,6.466679 L15.253359,6.466679 L15.253359,5.606659 C15.252059,5.382769 15.161959,5.168539 15.002959,5.010919 C14.843959,4.853309 14.628859,4.765179 14.404959,4.765839 L2.162499,4.765839 C1.872439,4.765929 1.585329,4.707529 1.318329,4.594169 Z M15.249159,7.788339 L9.270859,7.788339 C9.074759,7.788339 8.886619,7.866189 8.747869,8.004789 C8.609119,8.143379 8.531049,8.331389 8.530829,8.527499 L8.530829,10.336639 C8.531049,10.532839 8.609089,10.720939 8.747819,10.859639 C8.886549,10.998439 9.074659,11.076439 9.270859,11.076639 L15.249159,11.076639 L15.249159,7.788339 Z M12.574159,1.318329 L2.165829,1.318329 C1.941939,1.318779 1.727349,1.407969 1.569109,1.566369 C1.410869,1.724759 1.321889,1.939439 1.321669,2.163339 L1.321669,2.599169 C1.321889,2.823069 1.410869,3.037749 1.569109,3.196139 C1.727349,3.354539 1.941939,3.443739 2.165829,3.444179 L12.574159,3.444179 L12.574159,1.318329 Z"></path></clipPath></defs><g transform=""><g clip-path="url(#i0)"><polygon points="0,0 16.567459,0 16.567459,15.485039 0,15.485039 0,0" stroke="none" fill="#E6F783"></polygon></g></g></svg>